<?xml version="1.0" encoding="UTF-8" standalone="no"?>
<svg xmlns:xlink="http://www.w3.org/1999/xlink" xmlns:svg="http://www.w3.org/2000/svg" xmlns="http://www.w3.org/2000/svg" width="48" height="41">
<g transform="translate(-4.4450417,-12.585675)">
<path style="fill:#ffffff;fill-opacity:1;stroke:#ffffff;stroke-width:0.60000002;stroke-linecap:round;stroke-linejoin:miter;stroke-miterlimit:4;stroke-dasharray:none;stroke-dashoffset:0;stroke-opacity:1"
 d="M6.331,38.257C7.971,39.631 9.565,41.055 11.101,42.544C13.619,45.206 15.784,48.168 18.061,51.032C19.351,53.258
 21.307,52.538 20.426,52.843C25.927,46.811 30.507,39.979 35.421,33.468C40.61,26.431 46.215,19.718 51.758,12.962L51.938,12.886C46.341,19.561
 40.834,26.311 35.695,33.35C31.121,39.65 26.819,46.167 21.949,52.24C19.288,53.914 18.431,54.536 16.719,51.828C14.632,48.833
 12.482,45.854 9.821,43.333C8.234,41.855 6.598,40.414 4.745,39.273L6.331,38.257z" />
</g>
</svg>

